<?xml version="1.0" encoding="UTF-8"?>
<svg id="_레이어_1" data-name="레이어 1" xmlns="http://www.w3.org/2000/svg" xmlns:xlink="http://www.w3.org/1999/xlink" viewBox="0 0 147.24 148.08">
  <defs>
    <style>
      .cls-1 {
        clip-path: url(#clippath-7);
      }

      .cls-1, .cls-2, .cls-3, .cls-4 {
        fill: none;
      }

      .cls-2 {
        clip-path: url(#clippath-4);
      }

      .cls-3 {
        clip-path: url(#clippath-1);
      }

      .cls-5 {
        fill: #fae100;
      }

      .cls-6 {
        fill: #371d1e;
      }

      .cls-4 {
        clip-path: url(#clippath-10);
      }
    </style>
    <clipPath id="clippath-1">
      <path class="cls-5" d="m36.21,62.03h5.45s.03,14.97,0,18.46c0,2.55,5.67,2.58,5.66.04l.02-18.3s1.83.01,5.42.01c3.39,0,3.39-5.33,0-5.33-3.82,0-16.58-.11-16.58-.11-3.2,0-3.19,5.23,0,5.23"/>
    </clipPath>
    <clipPath id="clippath-4">
      <path class="cls-5" d="m62.3,63l3.03,9.5h-6.32l3.29-9.5Zm-3.4-4.45c-1.34,2.95-6.19,16.9-7.79,20.6-1.16,2.67,3.85,4.85,5.01,2.18l1.09-3.81h9.97s-.34.16.98,3.65c1.07,2.83,6.25.87,5.18-1.96-1.53-4.04-6.83-18.6-7.8-20.66-.44-.95-2.04-1.64-3.59-1.64-1.28,0-2.53.47-3.06,1.64"/>
    </clipPath>
    <clipPath id="clippath-7">
      <path class="cls-5" d="m75.26,59.42c0,4.74.03,20.02.03,20.02,0,0-.44,3.04,2.17,3.04s8.38-.03,10.94-.03,2.55-5.45-.01-5.45-7.24-.03-7.24-.03c0,0,.02-14.13.01-17.57,0-1.66-1.48-2.49-2.95-2.49s-2.96.84-2.95,2.5"/>
    </clipPath>
    <clipPath id="clippath-10">
      <path class="cls-5" d="m91.64,58.67c.06,2.08-.07,20.88-.07,22.27,0,2.2,5.6,2.19,5.6,0,0-2.55,0-7.4,0-7.4l1.64-1.32,7.19,9.8c1.45,1.92,6.02-1.55,4.57-3.46l-7.63-10.05s5.18-5.6,7.22-7.63c1.19-1.18-2.5-4.9-3.69-3.71-1.15,1.14-9.27,9.27-9.27,9.27,0,0,.07-5.1,0-7.92-.03-1.07-1.34-1.59-2.69-1.59-1.44,0-2.91.59-2.88,1.74"/>
    </clipPath>
  </defs>
  <path class="cls-5" d="m147.24,115.13c0,18.2-14.67,32.95-32.76,32.95H32.76c-18.09,0-32.76-14.75-32.76-32.95V32.95C0,14.75,14.67,0,32.76,0h81.72c18.09,0,32.76,14.75,32.76,32.95v82.19Z"/>
  <path class="cls-6" d="m73.16,27.88c-29.25,0-52.96,18.74-52.96,41.87,0,15.05,10.04,28.24,25.12,35.62-1.11,4.13-4.01,14.98-4.59,17.3-.72,2.88,1.05,2.84,2.22,2.07.91-.61,14.51-9.86,20.38-13.85,3.19.47,6.47.72,9.83.72,29.25,0,52.96-18.74,52.96-41.86s-23.71-41.87-52.96-41.87"/>
  <g>
    <g>
      <path class="cls-5" d="m36.21,62.03h5.45s.03,14.97,0,18.46c0,2.55,5.67,2.58,5.66.04l.02-18.3s1.83.01,5.42.01c3.39,0,3.39-5.33,0-5.33-3.82,0-16.58-.11-16.58-.11-3.2,0-3.19,5.23,0,5.23"/>
      <g class="cls-3">
        <rect class="cls-5" x="33" y="56.81" width="23.16" height="26.27"/>
      </g>
    </g>
    <g>
      <path class="cls-5" d="m62.3,63l3.03,9.5h-6.32l3.29-9.5Zm-3.4-4.45c-1.34,2.95-6.19,16.9-7.79,20.6-1.16,2.67,3.85,4.85,5.01,2.18l1.09-3.81h9.97s-.34.16.98,3.65c1.07,2.83,6.25.87,5.18-1.96-1.53-4.04-6.83-18.6-7.8-20.66-.44-.95-2.04-1.64-3.59-1.64-1.28,0-2.53.47-3.06,1.64"/>
      <g class="cls-2">
        <rect class="cls-5" x="49.94" y="56.92" width="24.48" height="27.1"/>
      </g>
    </g>
    <g>
      <path class="cls-5" d="m75.26,59.42c0,4.74.03,20.02.03,20.02,0,0-.44,3.04,2.17,3.04s8.38-.03,10.94-.03,2.55-5.45-.01-5.45-7.24-.03-7.24-.03c0,0,.02-14.13.01-17.57,0-1.66-1.48-2.49-2.95-2.49s-2.96.84-2.95,2.5"/>
      <g class="cls-1">
        <rect class="cls-5" x="74.85" y="56.92" width="16.11" height="25.56"/>
      </g>
    </g>
    <g>
      <path class="cls-5" d="m91.64,58.67c.06,2.08-.07,20.88-.07,22.27,0,2.2,5.6,2.19,5.6,0,0-2.55,0-7.4,0-7.4l1.64-1.32,7.19,9.8c1.45,1.92,6.02-1.55,4.57-3.46l-7.63-10.05s5.18-5.6,7.22-7.63c1.19-1.18-2.5-4.9-3.69-3.71-1.15,1.14-9.27,9.27-9.27,9.27,0,0,.07-5.1,0-7.92-.03-1.07-1.34-1.59-2.69-1.59-1.44,0-2.91.59-2.88,1.74"/>
      <g class="cls-4">
        <rect class="cls-5" x="91.57" y="55.99" width="20.45" height="27.96"/>
      </g>
    </g>
  </g>
</svg>